<?xml version="1.0" encoding="UTF-8" standalone="no"?>
<!DOCTYPE svg PUBLIC "-//W3C//DTD SVG 1.1//EN" "http://www.w3.org/Graphics/SVG/1.1/DTD/svg11.dtd">
<svg width="100%" height="100%" viewBox="0 0 451 98" version="1.1" xmlns="http://www.w3.org/2000/svg" xmlns:xlink="http://www.w3.org/1999/xlink" xml:space="preserve" xmlns:serif="http://www.serif.com/" style="fill-rule:evenodd;clip-rule:evenodd;stroke-linejoin:round;stroke-miterlimit:2;">
    <g transform="matrix(1,0,0,1,-24.99672,-201.24)">
        <path fill="white" d="M277.7,276.47C279.55,283.68 286.1,289.02 293.89,289.02C301.68,289.02 308.23,283.69 310.09,276.47L320.03,276.47C318.02,289.1 307.09,298.76 293.89,298.76C280.69,298.76 269.75,289.1 267.75,276.47L277.7,276.47ZM267.42,272.6C267.42,272.5 267.41,272.4 267.41,272.29C267.41,272.19 267.42,272.09 267.42,271.99L267.42,272.6ZM264.63,226.32L245.13,236.07L245.13,270.91L235.38,270.91L235.38,217.97L245.13,217.97L245.13,226.32L264.63,216.57L264.63,226.32ZM402.56,226.32C405.08,222.31 409.96,220.74 416.49,220.74C427.13,220.74 434.6,230.07 434.6,240.43L434.6,270.9L424.73,270.9L424.73,242.67C424.73,235.2 420.05,230.49 413.7,230.49C407.26,230.49 402.56,235.57 402.56,242.67L402.56,270.9L392.81,270.9L392.81,220.74L402.56,220.74L402.56,226.32ZM98.84,226.32C101.63,222.14 106.92,220.74 112.77,220.74C118.63,220.74 123.92,223.53 126.7,227.71C129.49,223.53 133.67,220.74 142.03,220.74C153.87,220.74 162.93,228.4 162.93,238.85L162.93,270.89L153.18,270.89L153.18,241.63C153.18,234.36 148.36,229.79 142.04,229.79C135.52,229.79 130.89,234.74 130.89,241.63L130.89,270.89L121.14,270.89L121.14,241.63C121.14,234.36 115.72,229.79 109.29,229.79C102.77,229.79 98.84,234.35 98.84,241.24L98.84,270.89L89.09,270.89L89.09,220.73L98.84,220.73L98.84,226.32ZM226.99,241.85C227.44,252.58 221.63,263.06 211.36,268.07C201.09,273.08 189.26,271.2 181.08,264.24L191.2,259.3C196.04,261.66 201.87,261.84 207.08,259.3C212.29,256.76 215.74,252.05 216.86,246.78L226.99,241.85ZM320.36,215.17L320.36,245.81L320.32,245.81C319.6,259.78 308.04,270.89 293.89,270.89C279.27,270.89 267.42,259.04 267.42,244.42C267.42,229.8 279.27,217.95 293.89,217.95C300.23,217.95 306.05,220.18 310.61,223.9L310.61,215.17L320.36,215.17ZM384.43,241.85C384.88,252.58 379.07,263.06 368.8,268.07C358.53,273.08 346.69,271.2 338.52,264.24L348.64,259.3C353.48,261.66 359.31,261.84 364.52,259.3C369.73,256.76 373.18,252.05 374.3,246.78L384.43,241.85ZM456.88,215.17L468.03,215.17L468.03,224.92L456.88,224.92L456.88,261.14L475,261.14L475,270.89L447.13,270.89L447.13,224.92L440.16,224.92L440.16,215.17L447.13,215.17L447.13,201.24L456.88,201.24L456.88,215.17ZM80.7,241.84C81.15,252.57 75.34,263.05 65.07,268.06C54.8,273.07 42.97,271.19 34.79,264.23L44.91,259.29C49.75,261.65 55.58,261.83 60.79,259.29C66,256.75 69.45,252.04 70.57,246.77L80.7,241.84ZM293.89,227.71C284.66,227.71 277.17,235.19 277.17,244.43C277.17,253.66 284.66,261.15 293.89,261.15C303.12,261.15 310.61,253.66 310.61,244.43C310.61,235.19 303.12,227.71 293.89,227.71ZM186.94,217.99C200.77,211.25 217.45,216.99 224.19,230.82C224.6,231.66 224.97,232.52 225.29,233.38L175.46,257.69C174.98,256.91 174.53,256.09 174.11,255.25C167.37,241.42 173.11,224.74 186.94,217.99ZM344.37,217.99C358.2,211.25 374.88,216.99 381.62,230.82C382.03,231.66 382.4,232.52 382.72,233.38L332.89,257.69C332.41,256.91 331.96,256.09 331.54,255.25C324.8,241.42 330.55,224.74 344.37,217.99ZM40.65,217.99C54.48,211.25 71.16,216.99 77.9,230.82C78.31,231.66 78.68,232.52 79,233.38L29.17,257.68C28.69,256.9 28.24,256.08 27.82,255.24C21.08,241.41 26.82,224.73 40.65,217.99ZM211.13,229.44C205.81,224.75 197.99,223.46 191.22,226.76C184.45,230.06 180.66,237.02 181.08,244.1L211.13,229.44ZM368.56,229.44C363.24,224.75 355.42,223.46 348.65,226.76C341.88,230.06 338.09,237.02 338.51,244.1L368.56,229.44ZM64.84,229.44C59.52,224.76 51.7,223.45 44.93,226.75C38.16,230.05 34.37,237.02 34.79,244.1L64.84,229.44Z" style="fill-rule:nonzero;"/>
    </g>
</svg>
