<svg width="49" height="20" viewBox="0 0 49 20" fill="none" xmlns="http://www.w3.org/2000/svg">
<path d="M24.0806 3.30127L24.1346 3.35465L24.1905 3.30257C25.5871 2.00053 26.8673 1.13858 28.4699 0.421154L28.8073 0.270118L19.2836 0.313085L19.6908 0.462819C21.4769 1.1184 22.6255 1.86121 24.0806 3.30127Z" fill="white" style="fill:white;fill-opacity:1;"/>
<path d="M0.666408 5.23094C0.103283 5.38718 0 5.7192 0 6.31684V9.95148C0 10.3864 0.298667 10.6904 0.726931 10.6904H1.65056V10.029C1.65056 7.9867 2.18277 6.08377 3.14916 4.66976L3.27086 4.49138L0.666408 5.23094Z" fill="white" style="fill:white;fill-opacity:1;"/>
<path d="M47.4714 5.23158L45.0537 4.50505L45.184 4.68994C46.276 6.23871 46.6023 7.70546 46.3484 9.92283L46.2596 10.6904H47.4089C47.8371 10.6904 48.1358 10.3864 48.1358 9.95148V6.31683C48.1358 5.72375 48.0365 5.41061 47.4714 5.23158Z" fill="white" style="fill:white;fill-opacity:1;"/>
<path d="M43.454 3.47516C42.0265 1.92638 40.1628 0.968729 38.2063 0.777981L37.6879 0.727201L38.1675 0.927715C40.6404 1.96023 42.3021 5.33642 42.3021 9.32913C42.3021 12.5484 41.2108 14.8739 39.0589 16.2404L38.7392 16.4435L39.1142 16.3836C40.8713 16.1017 42.51 15.2098 43.729 13.8713C44.9882 12.4885 45.6815 10.7379 45.6815 8.94047C45.6815 6.97439 44.8901 5.0337 43.454 3.47516Z" fill="white" style="fill:white;fill-opacity:1;"/>
<path d="M40.9443 5.67103C40.3983 3.96536 39.3812 2.52661 38.0024 1.51167C36.659 0.522769 35.0696 0 33.4066 0C30.5541 0 27.1635 1.55789 24.7683 3.96862L24.715 4.022L24.767 4.07668C25.9675 5.34422 26.8793 6.99 27.6365 9.2562L27.7464 9.58561L27.7898 9.24122C28.174 6.17948 30.9607 3.01292 34.9585 3.01292C37.1991 3.01292 39.495 4.0845 40.8075 5.74264L41.0765 6.08313L40.9443 5.67103Z" fill="white" style="fill:white;fill-opacity:1;"/>
<path d="M22.2763 15.269C21.5296 14.2501 20.8711 12.8237 20.4224 11.2509L20.3027 10.8303L20.2678 11.2659C20.0297 14.2592 17.2312 17.3913 12.961 17.4518L12.3249 17.461L12.9439 17.6061C13.7314 17.7904 14.5083 17.8802 15.3188 17.8802C17.8555 17.8802 20.1915 17.0371 22.2618 15.3751L22.3197 15.3282L22.2763 15.269Z" fill="white" style="fill:white;fill-opacity:1;"/>
<path d="M44.2643 14.4299C42.6729 16.3654 39.3744 17.6661 36.0575 17.6661C33.8998 17.6661 32.1525 17.1004 30.7164 15.937C29.2961 14.7866 28.1771 13.0484 27.2942 10.624L26.666 8.91378C24.6102 3.34431 19.7585 0.0195504 13.6884 0.0195504C10.4314 0.0195504 7.62565 0.981758 5.5738 2.80201C3.52063 4.62356 2.43517 7.11567 2.43517 10.0094C2.43517 12.7945 3.50484 15.3354 5.44749 17.1648C7.38882 18.9929 10.0854 19.9993 13.0411 19.9993C15.7975 19.9993 18.2849 19.2129 20.0433 17.7852L20.5315 17.3894L19.9598 17.6544C18.4257 18.3653 16.9014 18.6967 15.162 18.6967C12.4076 18.6967 10.063 17.8634 8.38218 16.2866C6.70268 14.7105 5.81457 12.5133 5.81457 9.93198C5.81457 7.52906 6.63886 5.3501 8.13483 3.79612C9.64592 2.22651 11.7859 1.36195 14.1608 1.36195C16.4784 1.36195 18.3467 1.89904 19.8736 3.00383C21.561 4.22514 22.9057 6.17624 23.9852 8.96912L24.9279 11.3987C27.1475 17.1062 30.6874 20 35.4497 20C37.4305 20 39.3047 19.5091 40.8711 18.5801C42.5039 17.6114 43.7242 16.2039 44.3998 14.5093L44.5866 14.0399L44.2643 14.4299Z" fill="white" style="fill:white;fill-opacity:1;"/>
<path d="M30.5284 19.3821C27.7654 18.304 25.7017 15.6922 23.8374 10.9143L22.9927 8.71843C21.2737 4.22119 18.5133 2.21539 14.0419 2.21539C11.9841 2.21539 10.1316 2.94909 8.6843 4.33642H8.68562C9.83226 3.40806 11.4947 3.01289 13.1775 3.01289C14.8793 3.01289 16.3707 3.53566 17.6094 4.56623C18.9074 5.64627 19.9415 7.2966 20.6836 9.47036L21.4296 11.6474C22.9341 16.0365 26.1504 18.8366 30.4863 19.5319L31.2086 19.6478L30.5284 19.3821Z" fill="white" style="fill:white;fill-opacity:1;"/>
</svg>
